<?xml version="1.0" encoding="UTF-8" standalone="no"?><!DOCTYPE svg PUBLIC "-//W3C//DTD SVG 1.1//EN" "http://www.w3.org/Graphics/SVG/1.1/DTD/svg11.dtd"><svg width="100%" height="100%" viewBox="0 0 480 480" version="1.1" xmlns="http://www.w3.org/2000/svg" xmlns:xlink="http://www.w3.org/1999/xlink" xml:space="preserve" xmlns:serif="http://www.serif.com/" style="fill-rule:evenodd;clip-rule:evenodd;stroke-linejoin:round;stroke-miterlimit:1.41421;"><path id="Background" d="M480,432c0,26.508 -21.49,48 -48,48l-384,0c-26.51,0 -48,-21.492 -48,-48l0,-384c0,-26.51 21.49,-48 48,-48l384,0c26.51,0 48,21.49 48,48l0,384Z" style="fill:#231f20;"/><path id="Logo" d="M338.82,210.96c-6.962,-25.558 -18.99,-45.342 -36.088,-59.348c-17.116,-13.996 -37.598,-21.004 -61.462,-21.004c-24.438,0 -45.634,7.188 -63.578,21.568c-17.954,14.378 -30.308,33.974 -37.076,58.784l198.204,0Zm-199.894,50.186c4.694,25.938 16.394,46.944 35.1,63.014c18.7,16.07 40.922,24.104 66.678,24.104c18.41,0 35.186,-4.412 50.326,-13.25c15.126,-8.838 27.206,-21.328 36.23,-37.498l62.872,0c-14.294,34.396 -34.256,60.716 -59.912,78.944c-25.656,18.226 -55.5,27.344 -89.516,27.344c-22.934,0 -43.89,-4.042 -62.872,-12.12c-18.988,-8.076 -36.186,-20.202 -51.594,-36.372c-14.478,-15.222 -25.796,-32.944 -33.974,-53.144c-8.176,-20.202 -12.264,-40.84 -12.264,-61.886c0,-21.802 3.706,-42.192 11.136,-61.18c7.422,-18.982 18.368,-36.272 32.848,-51.878c15.406,-16.916 32.794,-29.646 52.156,-38.202c19.356,-8.55 40.502,-12.828 63.436,-12.828c27.25,0 52.582,6.344 75.984,19.03c23.4,12.688 42.714,30.408 57.938,53.146c9.024,14.096 15.69,29.562 20.018,46.38c4.314,16.824 6.484,36.044 6.484,57.656l0,8.74l-261.074,0Z" style="fill:#fff;fill-rule:nonzero;"/></svg>